<svg xmlns="http://www.w3.org/2000/svg" width="300" height="150" viewBox="0 0 79.375 39.688"><g transform="translate(0 -257.312)"><path d="M14.256 275.04s4.266-2.694 9.373-2.863c4.378 3.424 4.883 9.486 4.995 15.884-4.321-1.01-8.924 1.403-8.924 1.403.337-7.633-1.964-11.674-5.444-14.424z" fill="none" stroke="#ff5722" stroke-width=".476" stroke-linejoin="round"/><path d="M16.108 287.556s.351-3.27 3.157-3.887M22.381 288.496s-1.03 2.906-1.148 4.772M25.797 287.83s-.715 1.072-.675 2.064c.04.993 1.27 2.104 1.27 2.104M28.335 281.868s1.311-1.38 3.653.565M31.155 282.393s.76-1.335 3.181-1.533" fill="none" stroke="#ff5722" stroke-width=".476" stroke-linecap="round" stroke-linejoin="round"/><path d="M31.71 272.79c3.096 5.08 3.135 11.707 2.858 14.326 2.897 1.548 4.445 2.699 4.445 2.699s1.587-10.755-.437-16.669c-3.135-1.944-5.993-1.111-6.866-.357z" fill="none" stroke="#ff5722" stroke-width=".476" stroke-linejoin="round"/><path d="M36.145 288.069s-1.458 1.35-1.934 2.659M38.16 289.339s-.18 1.35.416 2.143c.595.794 1.072 1.111 1.072 1.111" fill="none" stroke="#ff5722" stroke-width=".476" stroke-linecap="round" stroke-linejoin="round"/><path d="M43.656 276.083l3.135 1.548s1.151 5.04.04 12.263c-1.865-2.42-2.937-2.659-2.937-2.659s.953-5.278-.238-11.152z" fill="none" stroke="#ff5722" stroke-width=".476" stroke-linejoin="round"/><path d="M44.152 281.917s-1.33.596-1.488 3.175M47.347 283.743s.617 2.514.934 2.514M44.914 287.882s-.861.425-1.06 2.568M46.117 289.06s-.04 1.747-.477 2.104M48.774 286.335s.323-2.147 1.024-3.311" fill="none" stroke="#ff5722" stroke-width=".476" stroke-linecap="round" stroke-linejoin="round"/><path d="M49.447 274.619s.618 6.707.253 13.582c1.15.253 2.105 1.18 3.115 2.19.196-6.259.561-14.453.561-14.453s-1.712-1.095-3.929-1.32z" fill="none" stroke="#ff5722" stroke-width=".476" stroke-linejoin="round"/><path d="M50.822 288.679s-1.094.926-1.15 2.47M51.615 289.282s-.315.608.514 2.339" fill="none" stroke="#ff5722" stroke-width=".476" stroke-linecap="round" stroke-linejoin="round"/><path d="M52.955 283.627l3.677.73M56.8 281.522l-.112 6.82 4.574 1.964 4.294-1.824.028-6.791-4.462 1.712zM61.122 283.403l.14 6.903" fill="none" stroke="#ff5722" stroke-width=".476" stroke-linejoin="round"/><path d="M56.8 281.522l4.462-2.02 4.322 2.189M59.045 280.512l4.153 2.049" fill="none" stroke="#ff5722" stroke-width=".476" stroke-linejoin="round"/><path d="M63.339 288.819l1.711-.744v-1.389z" fill="#ff5722"/><path d="M18.55 277.06c.397-.496 1.365-.596 1.365-.596M22.897 275.783s.515-.232 1.21-.013M21.246 279.752s.81.45 1.96-.106" fill="none" stroke="#ff5722" stroke-width=".265"/><path d="M14.698 275.432c1.046-2.28-.09-3.915 1.195-5.59.88-1.148 3.4-3.662 5.346-4.883 2.28-1.431 2.81-1.807 5.155-2.22-.446.95-.08.513-.6 1.379-.68 1.133-.888 1.73-.996 2.222-.154.703-1.44 2.278-1.193 3.224.24.919.563 1.976 1.491 2.68-5.229-1.226-7.507.632-10.398 3.188z" fill="#ff3131" stroke="#000" stroke-width=".516"/><path d="M15.377 276.555c-.965 1.135-3.065-.591-1.62-1.777 1.033-.475 1.334-1.574 2.178-1.805 1.252-.342 1.627-1.026 2.382-1.293.889-.314 1.968-.217 2.925-.665.995-.466 2.314-.25 3.802.08 1.973.573 1.119 2.32 0 1.88-1.277-.504-2.218-.22-3.107-.173-1.07.057-1.852.042-2.5.485-.671.459-1.331.92-2.113 1.224-.853.333-1.836.69-1.947 2.044z" fill="#fff" stroke="#000" stroke-width=".516"/><circle r="1.084" cy="262.921" cx="26.357" fill="#fff" stroke="#000" stroke-width=".516" stroke-linecap="round" stroke-linejoin="round"/></g></svg>