<svg xmlns="http://www.w3.org/2000/svg" viewBox="0 0 79.375 26.458" height="100" width="300"><path d="M14.256 6.365s4.266-2.694 9.373-2.862c4.378 3.423 4.883 9.485 4.995 15.883-4.321-1.01-8.924 1.404-8.924 1.404.337-7.634-1.964-11.675-5.444-14.425z" fill="none" stroke="#ff5722" stroke-width=".476" stroke-linejoin="round"/><path d="M16.108 18.881s.351-3.27 3.157-3.886M22.381 19.821s-1.03 2.907-1.148 4.772M25.797 19.156s-.715 1.071-.675 2.064c.04.992 1.27 2.103 1.27 2.103M28.335 13.193s1.311-1.38 3.653.565M31.155 13.719s.76-1.336 3.181-1.534" fill="none" stroke="#ff5722" stroke-width=".476" stroke-linecap="round" stroke-linejoin="round"/><path d="M31.71 4.114c3.096 5.08 3.135 11.708 2.858 14.327 2.897 1.548 4.445 2.7 4.445 2.7s1.587-10.756-.437-16.67c-3.135-1.944-5.993-1.11-6.866-.357z" fill="none" stroke="#ff5722" stroke-width=".476" stroke-linejoin="round"/><path d="M36.145 19.394s-1.458 1.35-1.934 2.659M38.16 20.664s-.18 1.35.416 2.143c.595.794 1.072 1.111 1.072 1.111" fill="none" stroke="#ff5722" stroke-width=".476" stroke-linecap="round" stroke-linejoin="round"/><path d="M43.656 7.408l3.135 1.548s1.151 5.04.04 12.264c-1.865-2.421-2.937-2.66-2.937-2.66s.953-5.278-.238-11.152z" fill="none" stroke="#ff5722" stroke-width=".476" stroke-linejoin="round"/><path d="M44.152 13.242s-1.33.596-1.488 3.175M47.347 15.068s.617 2.514.934 2.514M44.914 19.208s-.861.424-1.06 2.567M46.117 20.386s-.04 1.746-.477 2.104M48.774 17.66s.323-2.146 1.024-3.31" fill="none" stroke="#ff5722" stroke-width=".476" stroke-linecap="round" stroke-linejoin="round"/><path d="M49.447 5.944s.618 6.707.253 13.583c1.15.252 2.105 1.178 3.115 2.189.196-6.258.561-14.453.561-14.453s-1.712-1.094-3.929-1.319z" fill="none" stroke="#ff5722" stroke-width=".476" stroke-linejoin="round"/><path d="M50.822 20.004s-1.094.926-1.15 2.47M51.615 20.607s-.315.608.514 2.339" fill="none" stroke="#ff5722" stroke-width=".476" stroke-linejoin="round" stroke-linecap="round"/><path d="M52.955 14.952l3.677.73M56.8 12.848l-.112 6.819 4.574 1.964 4.294-1.824.028-6.79-4.462 1.71zM61.122 14.728l.14 6.903M56.8 12.848l4.462-2.02 4.322 2.188M59.045 11.837l4.153 2.049" fill="none" stroke="#ff5722" stroke-width=".476" stroke-linejoin="round"/><path d="M63.339 20.144l1.711-.744v-1.389z" fill="#ff5722"/><path d="M18.55 8.386c.397-.496 1.365-.596 1.365-.596M22.897 7.108s.515-.232 1.21-.013M21.246 11.077s.81.45 1.96-.106" fill="none" stroke="#ff5722" stroke-width=".265"/></svg>