<svg xmlns="http://www.w3.org/2000/svg" viewBox="0 0 270.933 270.933" height="1024" width="1024"><path d="M72.514 30.23l27.434 123.703 87.793-12.605-30.888-120.535z" fill="#d8dadd" stroke="#7b828c" stroke-width="4.954142999999999"/><g stroke-width="3.175" stroke-miterlimit="0" fill="#ff5722" stroke="#fff" stroke-linejoin="round"><path d="M118.173 61.029v189.335L36.98 226.117l-.547-138.398M118.173 61.029v189.335l121.587-13.661-7.036-152.1" stroke-width="4.954142999999999"/><path d="M36.434 87.72l81.739-26.691-21.686 65.892-72.523-8.686zM118.173 61.029l114.551 23.575 14.245 39.779-114.027 4.004z" stroke-width="4.954142999999999"/></g><path fill-opacity=".627" d="M83.134 37.127l16.084-1.712 3.656 16.525-16.084 1.713z"/><g fill-opacity=".627"><path d="M103.691 39.433l27.782-2.866.458 2.06-27.782 2.865zM104.244 42.134l43.055-4.441.415 1.866L104.659 44z"/></g></svg>