<!-- https://icomoon.io/app -->
<svg style="position: absolute; width: 0; height: 0; overflow: hidden;" version="1.1" xmlns="http://www.w3.org/2000/svg" xmlns:xlink="http://www.w3.org/1999/xlink"> <defs> <symbol id="ii-bars" viewBox="0 0 24 32"> <path d="M0 6v4h24v-4h-24zM0 18h24v-4h-24v4zM0 26h24v-4h-24v4z"></path> </symbol> <symbol id="ii-redo" viewBox="0 0 32 32"> <path d="M27.297 11.119l-9.287 8.933v-5.412c-2.812 0-9.974 0.062-9.974 7.426 0 3.855 2.735 7.072 6.371 7.816-5.842-0.792-10.36-5.747-10.36-11.806 0-11.256 12.025-11.351 13.963-11.351v-4.607l9.287 9.001z"></path> </symbol> <symbol id="ii-move" viewBox="0 0 32 32"> <path d="M23.609 11.057c-0.521-0.521-1.364-0.521-1.885 0s-0.521 1.364 0 1.885l1.724 1.724h-6.115v-6.115l1.724 1.724c0.26 0.26 0.601 0.391 0.943 0.391s0.683-0.131 0.943-0.391c0.521-0.521 0.521-1.364 0-1.885l-4.943-4.943-4.943 4.943c-0.521 0.521-0.521 1.364 0 1.885s1.364 0.521 1.885 0l1.724-1.724v6.115h-6.115l1.724-1.724c0.521-0.521 0.521-1.364 0-1.885s-1.364-0.521-1.885 0l-4.943 4.943 4.943 4.943c0.26 0.26 0.601 0.391 0.943 0.391s0.683-0.131 0.943-0.391c0.521-0.521 0.521-1.364 0-1.885l-1.724-1.724h6.115v6.115l-1.724-1.724c-0.521-0.521-1.364-0.521-1.885 0s-0.521 1.364 0 1.885l4.943 4.943 4.943-4.943c0.521-0.521 0.521-1.364 0-1.885s-1.364-0.521-1.885 0l-1.724 1.724v-6.115h6.115l-1.724 1.724c-0.521 0.521-0.521 1.364 0 1.885 0.26 0.26 0.601 0.391 0.943 0.391s0.683-0.131 0.943-0.391l4.943-4.943-4.943-4.943z"></path> </symbol> <symbol id="ii-pencil" viewBox="0 0 32 32"> <path d="M12 20l4-2 14-14-2-2-14 14-2 4zM9.041 27.097c-0.989-2.085-2.052-3.149-4.137-4.137l3.097-8.525 4-2.435 12-12h-6l-12 12-6 20 20-6 12-12v-6l-12 12-2.435 4z"></path> </symbol> <symbol id="ii-undo" viewBox="0 0 32 32"> <path d="M23.808 32c3.554-6.439 4.153-16.26-9.808-15.932v7.932l-12-12 12-12v7.762c16.718-0.436 18.58 14.757 9.808 24.238z"></path> </symbol> <symbol id="ii-logout" viewBox="0 0 32 32"> <path d="M24 20v-4h-10v-4h10v-4l6 6zM22 18v8h-10v6l-12-6v-26h22v10h-2v-8h-16l8 4v18h8v-6z"></path> </symbol> <symbol id="ii-pg" viewBox="0 0 32 32"> <path d="M28.681 11.159c-0.694-0.947-1.662-2.053-2.724-3.116s-2.169-2.030-3.116-2.724c-1.612-1.182-2.393-1.319-2.841-1.319h-11.5c-1.379 0-2.5 1.122-2.5 2.5v23c0 1.378 1.121 2.5 2.5 2.5h19c1.378 0 2.5-1.122 2.5-2.5v-15.5c0-0.448-0.137-1.23-1.319-2.841zM24.543 9.457c0.959 0.959 1.712 1.825 2.268 2.543h-4.811v-4.811c0.718 0.556 1.584 1.309 2.543 2.268v0zM28 29.5c0 0.271-0.229 0.5-0.5 0.5h-19c-0.271 0-0.5-0.229-0.5-0.5v-23c0-0.271 0.229-0.5 0.5-0.5 0 0 11.499-0 11.5 0v7c0 0.552 0.448 1 1 1h7v15.5z"></path> <path d="M18.841 1.319c-1.612-1.182-2.393-1.319-2.841-1.319h-11.5c-1.378 0-2.5 1.121-2.5 2.5v23c0 1.207 0.86 2.217 2 2.45v-25.45c0-0.271 0.229-0.5 0.5-0.5h15.215c-0.301-0.248-0.595-0.477-0.873-0.681z"></path> </symbol> <symbol id="ii-hider" viewBox="0 0 32 32"> <path d="M29.561 0.439c-0.586-0.586-1.535-0.586-2.121 0l-6.318 6.318c-1.623-0.492-3.342-0.757-5.122-0.757-6.979 0-13.028 4.064-16 10 1.285 2.566 3.145 4.782 5.407 6.472l-4.968 4.968c-0.586 0.586-0.586 1.535 0 2.121 0.293 0.293 0.677 0.439 1.061 0.439s0.768-0.146 1.061-0.439l27-27c0.586-0.586 0.586-1.536 0-2.121zM13 10c1.32 0 2.44 0.853 2.841 2.037l-3.804 3.804c-1.184-0.401-2.037-1.521-2.037-2.841 0-1.657 1.343-3 3-3zM3.441 16c1.197-1.891 2.79-3.498 4.67-4.697 0.122-0.078 0.246-0.154 0.371-0.228-0.311 0.854-0.482 1.776-0.482 2.737 0 1.715 0.54 3.304 1.459 4.607l-1.904 1.904c-1.639-1.151-3.038-2.621-4.114-4.323z"></path> <path d="M24 13.813c0-0.849-0.133-1.667-0.378-2.434l-10.056 10.056c0.768 0.245 1.586 0.378 2.435 0.378 4.418 0 8-3.582 8-8z"></path> <path d="M25.938 9.062l-2.168 2.168c0.040 0.025 0.079 0.049 0.118 0.074 1.88 1.199 3.473 2.805 4.67 4.697-1.197 1.891-2.79 3.498-4.67 4.697-2.362 1.507-5.090 2.303-7.889 2.303-1.208 0-2.403-0.149-3.561-0.439l-2.403 2.403c1.866 0.671 3.873 1.036 5.964 1.036 6.978 0 13.027-4.064 16-10-1.407-2.81-3.504-5.2-6.062-6.938z"></path> </symbol> <symbol id="ii-r" viewBox="0 0 32 32"> <path d="M31 16l-15-15v9h-16v12h16v9z"></path> </symbol> <symbol id="ii-l" viewBox="0 0 32 32"> <path d="M1 16l15 15v-9h16v-12h-16v-9z"></path> </symbol> <symbol id="ii-dl" viewBox="0 0 32 32"> <path d="M16 25.050v-11.050h1v11.050l3.25-3.25 0.75 0.75-4.5 4.5-4.5-4.5 0.75-0.75 3.25 3.25zM19 3h-9.991c-1.109 0-2.009 0.898-2.009 2.007v22.985c0 1.109 0.891 2.007 1.997 2.007h15.005c1.103 0 1.997-0.891 1.997-1.997v-17.003h-4.994c-1.108 0-2.006-0.887-2.006-1.998v-6.002zM20 3v5.997c0 0.554 0.451 1.003 0.991 1.003h5.009l-6-7z"></path> </symbol> <symbol id="ii-pen" viewBox="0 0 32 32"> <path d="M29.024 6.499l-2.467 2.467-3.523-3.523 2.467-2.467c0.973-0.973 2.551-0.973 3.523 0s0.973 2.55 0 3.523zM27.614 9.317c0.195-0.194 0.511-0.194 0.705 0 0.195 0.195 0.195 0.511 0 0.705l-9.16 9.161c-0.195 0.194-0.511 0.194-0.705 0s-0.194-0.51 0-0.704l5.99-5.99-4.934-4.934 2.114-2.113 4.933 4.933 1.057-1.058zM19.511 8.966l3.523 3.523-14.094 14.094-3.523-3.523 14.094-14.094zM2.246 29.754l2.466-5.989 3.523 3.523-5.989 2.466z"></path> </symbol> <symbol id="ii-crop" viewBox="0 0 32 32"> <path d="M25.002 8.394v12.533h4.039v4.039h-22.059v-21.934h4.039v3.977h12.429l4.639-4.639 1.405 1.406-4.492 4.618zM11.021 10.985v8.515l8.452-8.515h-8.452zM20.963 12.37l-8.619 8.557h8.619v-8.557zM3.006 7.009h3.045v3.977h-3.045v-3.977zM25.002 28.942h-4.039v-2.982h4.039v2.982z"></path> </symbol> <symbol id="ii-edit" viewBox="0 0 32 32"> <path d="M10.681 18.207l-2.209 5.67 5.572-2.307-3.363-3.363zM26.855 6.097l-0.707-0.707c-0.78-0.781-2.047-0.781-2.828 0l-1.414 1.414 3.535 3.536 1.414-1.414c0.782-0.781 0.782-2.048 0-2.829zM10.793 17.918l0.506-0.506 3.535 3.535 9.9-9.9-3.535-3.535 0.707-0.708-11.113 11.114zM23.004 26.004l-17.026 0.006 0.003-17.026 11.921-0.004 1.868-1.98h-14.805c-0.552 0-1 0.447-1 1v19c0 0.553 0.448 1 1 1h19c0.553 0 1-0.447 1-1v-14.058l-2.015 1.977 0.054 11.085z"></path> </symbol> <symbol id="ii-plus" viewBox="0 0 32 32"> <path d="M24 13.333h-5.333v-5.333c0-1.472-1.195-2.667-2.667-2.667s-2.667 1.195-2.667 2.667l0.095 5.333h-5.428c-1.472 0-2.667 1.195-2.667 2.667s1.195 2.667 2.667 2.667l5.428-0.095-0.095 5.428c0 1.472 1.195 2.667 2.667 2.667s2.667-1.195 2.667-2.667v-5.428l5.333 0.095c1.472 0 2.667-1.195 2.667-2.667s-1.195-2.667-2.667-2.667z"></path> </symbol> <symbol id="ii-dropdown" viewBox="0 0 32 32"> <path d="M9.313 13.313h13.375l-6.688 6.688z"></path> </symbol> <symbol id="ii-c" viewBox="0 0 32 32"> <path d="M25.313 8.563l-7.438 7.438 7.438 7.438-1.875 1.875-7.438-7.438-7.438 7.438-1.875-1.875 7.438-7.438-7.438-7.438 1.875-1.875 7.438 7.438 7.438-7.438z"></path> </symbol> <symbol id="ii-del" viewBox="0 0 32 32"> <path d="M25.313 5.313v2.688h-18.625v-2.688h4.625l1.375-1.313h6.625l1.375 1.313h4.625zM8 25.313v-16h16v16c0 1.438-1.25 2.688-2.688 2.688h-10.625c-1.438 0-2.688-1.25-2.688-2.688z"></path> </symbol> <symbol id="ii-sorthand" viewBox="0 0 32 32"> <path d="M5.313 20v-2.688h21.375v2.688h-21.375zM26.688 12v2.688h-21.375v-2.688h21.375z"></path> </symbol> <symbol id="ii-dir" viewBox="0 0 32 32"> <path d="M9.313 6.688h18.688v2.625h-18.688v-2.625zM9.313 17.313v-2.625h18.688v2.625h-18.688zM9.313 25.313v-2.625h18.688v2.625h-18.688zM5.313 22c1.125 0 2 0.938 2 2s-0.938 2-2 2-2-0.938-2-2 0.875-2 2-2zM5.313 6c1.125 0 2 0.875 2 2s-0.875 2-2 2-2-0.875-2-2 0.875-2 2-2zM5.313 14c1.125 0 2 0.875 2 2s-0.875 2-2 2-2-0.875-2-2 0.875-2 2-2z"></path> </symbol> <symbol id="ii-lock" viewBox="0 0 32 32"> <path d="M20.125 10.688v-2.688c0-2.25-1.875-4.125-4.125-4.125s-4.125 1.875-4.125 4.125v2.688h8.25zM16 22.688c1.438 0 2.688-1.25 2.688-2.688s-1.25-2.688-2.688-2.688-2.688 1.25-2.688 2.688 1.25 2.688 2.688 2.688zM24 10.688c1.438 0 2.688 1.188 2.688 2.625v13.375c0 1.438-1.25 2.625-2.688 2.625h-16c-1.438 0-2.688-1.188-2.688-2.625v-13.375c0-1.438 1.25-2.625 2.688-2.625h1.313v-2.688c0-3.688 3-6.688 6.688-6.688s6.688 3 6.688 6.688v2.688h1.313z"></path> </symbol> <symbol id="ii-save" viewBox="0 0 32 32"> <path d="M20 12v-5.313h-13.313v5.313h13.313zM16 25.313c2.188 0 4-1.813 4-4s-1.813-4-4-4-4 1.813-4 4 1.813 4 4 4zM22.688 4l5.313 5.313v16c0 1.438-1.25 2.688-2.688 2.688h-18.625c-1.5 0-2.688-1.25-2.688-2.688v-18.625c0-1.438 1.188-2.688 2.688-2.688h16z"></path> </symbol> </defs> </svg>
